HIERARCHY
ROOT Hips
{
	OFFSET 0.000000 0.000000 0.000000 
	CHANNELS 6 Xposition Yposition Zposition Zrotation Yrotation Xrotation
	JOINT LeftUpLeg
	{
		OFFSET 1.363060 -1.794630 0.839290 
		CHANNELS 3 Zrotation Yrotation Xrotation
		JOINT LeftLeg
		{
			OFFSET 2.448110 -6.726130 0.000000 
			CHANNELS 3 Zrotation Yrotation Xrotation
			JOINT LeftFoot
			{
				OFFSET 2.562200 -7.039590 0.000000 
				CHANNELS 3 Zrotation Yrotation Xrotation
				JOINT LeftToeBase
				{
					OFFSET 0.157640 -0.433110 2.322550 
					CHANNELS 3 Zrotation Yrotation Xrotation
					End Site
					{
						OFFSET 0.000000 0.000000 0.000000 
					}
				}
			}
		}
	}
	JOINT RightUpLeg
	{
		OFFSET -1.305520 -1.794630 0.839290 
		CHANNELS 3 Zrotation Yrotation Xrotation
		JOINT RightLeg
		{
			OFFSET -2.542530 -6.985550 0.000000 
			CHANNELS 3 Zrotation Yrotation Xrotation
			JOINT RightFoot
			{
				OFFSET -2.568260 -7.056230 0.000000 
				CHANNELS 3 Zrotation Yrotation Xrotation
				JOINT RightToeBase
				{
					OFFSET -0.164730 -0.452590 2.363150 
					CHANNELS 3 Zrotation Yrotation Xrotation
					End Site
					{
						OFFSET 0.000000 0.000000 0.000000 
					}
				}
			}
		}
	}
	JOINT Spine
	{
		OFFSET 0.028270 2.035590 -0.193380 
		CHANNELS 3 Zrotation Yrotation Xrotation
		JOINT Spine1
		{
			OFFSET 0.056720 2.048850 -0.042750 
			CHANNELS 3 Zrotation Yrotation Xrotation
			JOINT Neck1
			{
				OFFSET -0.054170 1.746240 0.172020 
				CHANNELS 3 Zrotation Yrotation Xrotation
				JOINT Head
				{
					OFFSET 0.104070 1.761360 -0.123970 
					CHANNELS 3 Zrotation Yrotation Xrotation
					End Site
					{
						OFFSET 0.000000 0.000000 0.000000 
					}
				}
			}
			JOINT LeftArm
			{
				OFFSET 3.362410 1.200890 -0.311210 
				CHANNELS 3 Zrotation Yrotation Xrotation
				JOINT LeftForeArm
				{
					OFFSET 4.983000 -0.000000 -0.000000 
					CHANNELS 3 Zrotation Yrotation Xrotation
					JOINT LeftHand
					{
						OFFSET 3.483560 -0.000000 -0.000000 
						CHANNELS 3 Zrotation Yrotation Xrotation
						JOINT LeftHandIndex1
						{
							OFFSET 0.715260 -0.000000 -0.000000 
							CHANNELS 3 Zrotation Yrotation Xrotation
							End Site
							{
								OFFSET 0.000000 0.000000 0.000000 
							}
						}
					}
				}
			}
			JOINT RightArm
			{
				OFFSET -3.136600 1.374050 -0.404650 
				CHANNELS 3 Zrotation Yrotation Xrotation
				JOINT RightForeArm
				{
					OFFSET -5.241900 -0.000000 -0.000000 
					CHANNELS 3 Zrotation Yrotation Xrotation
					JOINT RightHand
					{
						OFFSET -3.444170 -0.000000 -0.000000 
						CHANNELS 3 Zrotation Yrotation Xrotation
						JOINT RightHandIndex1
						{
							OFFSET -0.622530 -0.000000 -0.000000 
							CHANNELS 3 Zrotation Yrotation Xrotation
							End Site
							{
								OFFSET 0.000000 0.000000 0.000000 
							}
						}
					}
				}
			}
		}
	}
}
MOTION
Frames: 18
Frame Time: 0.041667
7.687800 9.867500 13.357000 3.832600 -2.563000 106.656000 -20.138100 -22.423600 -29.667000 3.373700 11.276700 33.218700 0.186500 4.959300 7.917500 0.341200 -3.753700 -10.384600 16.989500 14.213100 -32.703200 -3.133000 -10.907200 31.967600 0.198700 -12.134000 5.421100 -0.312900 3.596000 -9.942800 -0.863500 -1.508500 -3.165600 -3.011700 -0.777200 2.056000 -1.769200 1.184600 44.385500 -0.082900 -0.138100 17.825600 91.109100 -36.892700 -103.646700 8.081300 -13.684600 -0.971300 0.000000 0.000000 18.795400 -7.125000 0.000000 0.000000 -93.182200 33.648400 -88.156400 -11.389100 18.882200 -1.899900 0.000000 0.000000 39.350900 7.125000 0.000000 0.000000 
7.685700 9.861400 13.374000 3.855100 -2.587500 106.820000 -19.904200 -22.853200 -29.804500 3.196000 11.005800 32.299400 0.196400 5.268300 8.164200 0.303400 -3.541700 -9.790800 16.584700 14.837200 -32.638300 -2.948200 -10.610700 30.977900 0.291900 -14.793400 6.685500 -0.014400 0.774900 -2.129700 -0.835100 -1.522000 -3.174700 -2.941700 -0.782900 2.111300 -1.442600 1.099800 44.672800 0.096400 -0.176900 18.052200 91.056700 -36.903900 -103.526100 8.085300 -13.691100 -0.972200 0.000000 0.000000 18.665800 -7.125000 0.000000 0.000000 -93.298800 33.692600 -88.412100 -11.403100 18.903500 -1.904500 0.000000 0.000000 39.155200 7.125000 0.000000 0.000000 
7.684000 9.854600 13.389100 3.858000 -2.569700 106.961000 -19.615500 -23.233800 -30.084700 3.060400 10.792200 31.582200 0.203100 5.590200 8.358800 0.208600 -2.940500 -8.113000 16.231000 15.434800 -32.519400 -2.757800 -10.292300 29.928600 0.400300 -17.505600 8.051900 -0.139800 -2.409500 6.638800 -0.798200 -1.523900 -3.183900 -2.884500 -0.783000 2.155000 -1.149300 1.013700 44.946600 0.256000 -0.215100 18.270300 91.011200 -36.935900 -103.564700 8.097800 -13.711300 -0.975200 0.000000 0.000000 18.739900 -7.125000 0.000000 0.000000 -93.392100 33.704400 -88.444200 -11.426800 18.939500 -1.912100 0.000000 0.000000 38.748400 7.125000 0.000000 0.000000 
7.682800 9.847000 13.396100 3.861100 -2.580600 107.057000 -19.394500 -23.554400 -30.395800 2.925700 10.573900 30.855800 0.210200 5.934700 8.565700 0.141600 -2.425300 -6.682700 15.960900 15.803400 -32.426800 -2.575500 -9.973900 28.892400 0.470800 -19.867600 9.646700 -0.629100 -5.075100 14.122800 -0.771700 -1.520400 -3.188000 -2.819000 -0.780400 2.191000 -0.831000 0.922400 45.234300 0.429800 -0.254000 18.496000 91.002000 -36.960600 -103.763600 8.076100 -13.676100 -0.970000 0.000000 0.000000 19.030500 -7.125000 0.000000 0.000000 -93.503400 33.743500 -88.691600 -11.431200 18.946200 -1.913600 0.000000 0.000000 38.553100 7.125000 0.000000 0.000000 
7.681500 9.839400 13.405700 3.868300 -2.582900 107.166000 -19.135700 -23.920000 -30.707200 2.801200 10.366100 30.170600 0.216500 6.311200 8.772800 0.098200 -2.021000 -5.563700 15.654400 16.244800 -32.368800 -2.404300 -9.661800 27.888300 0.561800 -21.527700 10.399600 -1.122600 -6.730100 18.918300 -0.741500 -1.520500 -3.193600 -2.756200 -0.779500 2.230500 -0.527300 0.828700 45.517900 0.597100 -0.294900 18.725200 90.983400 -36.988000 -103.910300 8.062700 -13.654500 -0.966900 0.000000 0.000000 19.248000 -7.125000 0.000000 0.000000 -93.607200 33.775100 -88.864600 -11.443600 18.965000 -1.917600 0.000000 0.000000 38.303000 7.125000 0.000000 0.000000 
7.680300 9.831300 13.415500 3.874600 -2.582500 107.260000 -18.874900 -24.272800 -31.045100 2.687000 10.170300 29.530000 0.224000 6.734500 9.016400 0.070000 -1.706400 -4.695100 15.369800 16.632200 -32.356700 -2.246200 -9.361100 26.931700 0.644000 -22.595700 10.713400 -1.460800 -7.638800 21.622300 -0.711600 -1.519600 -3.198000 -2.695200 -0.778300 2.267100 -0.226900 0.732300 45.802400 0.763700 -0.337000 18.957600 90.969400 -37.015000 -104.079900 8.045100 -13.626000 -0.962700 0.000000 0.000000 19.488600 -7.125000 0.000000 0.000000 -93.716100 33.811100 -89.057600 -11.454200 18.981100 -1.921100 0.000000 0.000000 38.079400 7.125000 0.000000 0.000000 
7.679200 9.822900 13.425900 3.883200 -2.582400 107.336000 -18.621700 -24.607100 -31.372200 2.571400 9.966700 28.868900 0.235700 7.204700 9.341900 0.053200 -1.488500 -4.093900 15.093900 16.984100 -32.405100 -2.107300 -9.086100 26.064900 0.717500 -23.199000 10.670400 -1.621300 -8.028300 22.800000 -0.682900 -1.520300 -3.200300 -2.636700 -0.778000 2.300400 0.069100 0.634400 46.085800 0.929500 -0.380300 19.192400 90.952900 -37.040200 -104.233700 8.027500 -13.597400 -0.958600 0.000000 0.000000 19.700400 -7.125000 0.000000 0.000000 -93.830300 33.853300 -89.286300 -11.461800 18.992700 -1.923500 0.000000 0.000000 37.904200 7.125000 0.000000 0.000000 
7.678100 9.814200 13.437000 3.890300 -2.583100 107.397000 -18.377200 -24.917300 -31.708300 2.461400 9.767400 28.226800 0.251000 7.683000 9.720700 0.042400 -1.329000 -3.654700 14.820900 17.311900 -32.497000 -1.982700 -8.829900 25.264800 0.781600 -23.440300 10.348500 -1.622700 -8.031500 22.809700 -0.655400 -1.522600 -3.200900 -2.580500 -0.778500 2.330300 0.355400 0.537900 46.364600 1.092200 -0.423900 19.427400 90.927300 -37.062300 -104.344100 8.012500 -13.573200 -0.955100 0.000000 0.000000 19.851500 -7.125000 0.000000 0.000000 -93.948600 33.894300 -89.515700 -11.468500 19.002900 -1.925700 0.000000 0.000000 37.741900 7.125000 0.000000 0.000000 
7.677000 9.805300 13.448000 3.894100 -2.584800 107.438000 -18.144900 -25.196200 -32.053800 2.358400 9.575800 27.613500 0.268600 8.139000 10.121700 0.030900 -1.134400 -3.118600 14.541500 17.640200 -32.611700 -1.870600 -8.591200 24.524700 0.838100 -23.687800 10.105700 -1.629200 -8.046900 22.856600 -0.629500 -1.525400 -3.198600 -2.526000 -0.779200 2.356100 0.629400 0.444700 46.635100 1.250200 -0.467100 19.660300 90.894200 -37.077800 -104.409200 8.001500 -13.555300 -0.952500 0.000000 0.000000 19.938900 -7.125000 0.000000 0.000000 -94.066300 33.931400 -89.739600 -11.474200 19.011400 -1.927600 0.000000 0.000000 37.597800 7.125000 0.000000 0.000000 
7.675700 9.796100 13.457600 3.890700 -2.591700 107.461000 -17.934200 -25.436000 -32.415300 2.264100 9.395800 27.041300 0.291100 8.544700 10.562600 0.014300 -0.772800 -2.123800 14.252900 17.972200 -32.734900 -1.769200 -8.367800 23.837100 0.889900 -23.941700 9.917300 -1.653800 -8.104300 23.031500 -0.605800 -1.527400 -3.192900 -2.470100 -0.779600 2.379300 0.895900 0.356900 46.892400 1.406400 -0.508800 19.887700 90.855500 -37.085800 -104.438700 7.993300 -13.542100 -0.950600 0.000000 0.000000 19.976700 -7.125000 0.000000 0.000000 -94.179000 33.955600 -89.927500 -11.479500 19.019500 -1.929300 0.000000 0.000000 37.444500 7.125000 0.000000 0.000000 
7.674300 9.786600 13.465600 3.876900 -2.598100 107.467000 -17.740200 -25.632700 -32.796000 2.179900 9.231200 26.521300 0.313800 8.869800 10.968100 0.002000 -0.290200 -0.797500 13.959500 18.321500 -32.859500 -1.676700 -8.157300 23.193000 0.944300 -24.186300 9.699800 -1.662200 -8.123900 23.091100 -0.581900 -1.525700 -3.184500 -2.410900 -0.778200 2.399800 1.161700 0.275700 47.135100 1.564600 -0.548100 20.108800 90.815100 -37.092000 -104.476400 7.987100 -13.531900 -0.949100 0.000000 0.000000 20.023400 -7.125000 0.000000 0.000000 -94.281500 33.966500 -90.063000 -11.486200 19.029600 -1.931500 0.000000 0.000000 37.272000 7.125000 0.000000 0.000000 
7.672800 9.776800 13.471900 3.853300 -2.604300 107.456000 -17.563300 -25.791500 -33.193100 2.106800 9.085100 26.061900 0.332700 9.103600 11.285100 0.001900 0.282600 0.776500 13.662800 18.688000 -32.981100 -1.591800 -7.958200 22.587300 1.003400 -24.423700 9.435100 -1.661700 -8.122600 23.087200 -0.557900 -1.520500 -3.173200 -2.348700 -0.774900 2.417800 1.431800 0.201000 47.364800 1.727400 -0.584700 20.324400 90.778800 -37.094100 -104.541400 7.981400 -13.522800 -0.947800 0.000000 0.000000 20.096500 -7.125000 0.000000 0.000000 -94.376600 33.966200 -90.169100 -11.492700 19.039500 -1.933600 0.000000 0.000000 37.095000 7.125000 0.000000 0.000000 
7.671300 9.766700 13.476400 3.821300 -2.607000 107.429000 -17.397700 -25.923000 -33.600900 2.044400 8.958000 25.664100 0.346300 9.277800 11.510000 0.015900 0.813300 2.235300 13.375100 19.054800 -33.101800 -1.513700 -7.769700 22.016800 1.065900 -24.656600 9.137000 -1.666100 -8.132900 23.118600 -0.532500 -1.511400 -3.159800 -2.282800 -0.769700 2.432600 1.731500 0.125200 47.601900 1.909100 -0.621400 20.553400 90.747500 -37.096900 -104.638700 7.975700 -13.513500 -0.946400 0.000000 0.000000 20.201400 -7.125000 0.000000 0.000000 -94.469800 33.961500 -90.273700 -11.498300 19.048000 -1.935400 0.000000 0.000000 36.918700 7.125000 0.000000 0.000000 
7.669900 9.756300 13.478600 3.780100 -2.600700 107.385000 -17.237100 -26.031600 -34.008700 1.991800 8.848900 25.323800 0.351600 9.419000 11.622400 0.035400 1.214500 3.339100 13.107100 19.418400 -33.221900 -1.442200 -7.592100 21.481800 1.132900 -24.877200 8.784500 -1.664000 -8.127900 23.103400 -0.505500 -1.497600 -3.144600 -2.216700 -0.762200 2.443300 2.033200 0.054000 47.829400 2.092900 -0.655400 20.778100 90.723700 -37.099200 -104.761600 7.969200 -13.502900 -0.944900 0.000000 0.000000 20.325500 -7.125000 0.000000 0.000000 -94.567400 33.958300 -90.407800 -11.503000 19.055100 -1.937000 0.000000 0.000000 36.749200 7.125000 0.000000 0.000000 
7.668600 9.745700 13.478600 3.733700 -2.583300 107.324000 -17.077000 -26.127600 -34.410400 1.947800 8.756400 25.036200 0.348800 9.544800 11.632900 0.052200 1.473700 4.053200 12.862400 19.777800 -33.338800 -1.376800 -7.425200 20.981300 1.207600 -25.094700 8.356800 -1.659800 -8.118400 23.074200 -0.476500 -1.481300 -3.126700 -2.152500 -0.753400 2.451100 2.314700 -0.010900 48.037700 2.265200 -0.685900 20.987900 90.702800 -37.100500 -104.889100 7.963700 -13.493900 -0.943600 0.000000 0.000000 20.446400 -7.125000 0.000000 0.000000 -94.669800 33.957300 -90.581000 -11.507000 19.061200 -1.938300 0.000000 0.000000 36.597900 7.125000 0.000000 0.000000 
7.667500 9.735000 13.477400 3.684100 -2.554500 107.248000 -16.915300 -26.215100 -34.800500 1.910800 8.677800 24.792500 0.337900 9.666500 11.547300 0.066800 1.667100 4.586500 12.637300 20.139600 -33.458400 -1.317400 -7.269700 20.516900 1.287900 -25.298100 7.855400 -1.648600 -8.092100 22.994200 -0.443900 -1.465000 -3.106500 -2.089200 -0.744700 2.457200 2.553600 -0.061800 48.212700 2.413100 -0.710500 21.166700 90.678800 -37.099800 -105.011300 7.961300 -13.490100 -0.943100 0.000000 0.000000 20.552500 -7.125000 0.000000 0.000000 -94.781100 33.955900 -90.792200 -11.510500 19.066500 -1.939400 0.000000 0.000000 36.471300 7.125000 0.000000 0.000000 
7.666500 9.724500 13.474700 3.634200 -2.515700 107.158000 -16.753200 -26.298400 -35.173200 1.879900 8.611400 24.587000 0.319400 9.794000 11.372100 0.075700 1.774600 4.883100 12.423600 20.516000 -33.575800 -1.263400 -7.124800 20.085700 1.375400 -25.481100 7.248400 -1.615400 -8.014200 22.757200 -0.407200 -1.449900 -3.084000 -2.026000 -0.736500 2.461800 2.727600 -0.096200 48.344800 2.522900 -0.728400 21.302900 90.653400 -37.095600 -105.133200 7.961200 -13.489900 -0.943100 0.000000 0.000000 20.647000 -7.125000 0.000000 0.000000 -94.896600 33.951300 -91.024300 -11.514500 19.072500 -1.940700 0.000000 0.000000 36.370700 7.125000 0.000000 0.000000 
7.665700 9.714300 13.470900 3.587600 -2.470900 107.054000 -16.597600 -26.378900 -35.521300 1.854200 8.555400 24.414300 0.297300 9.942400 11.163200 0.084100 1.870500 5.147900 12.209900 20.917900 -33.684200 -1.214400 -6.990600 19.687500 1.468800 -25.660900 6.566700 -1.591600 -7.957800 22.585900 -0.365600 -1.437100 -3.058400 -1.958600 -0.729400 2.466800 2.828600 -0.114800 48.431700 2.589400 -0.740400 21.392200 90.626200 -37.086700 -105.248000 7.961900 -13.491100 -0.943200 0.000000 0.000000 20.715800 -7.125000 0.000000 0.000000 -95.017000 33.940300 -91.257500 -11.520100 19.081000 -1.942500 0.000000 0.000000 36.268500 7.125000 0.000000 0.000000 
